<?xml version="1.0" encoding="UTF-8" standalone="no"?>
<svg
   width="40"
   height="40"
   viewBox="0 0 40 40"
   version="1.1"
   id="svg10"
   sodipodi:docname="pluginIcon.svg"
   inkscape:version="1.4.2 (f4327f4, 2025-05-13)"
   xmlns:inkscape="http://www.inkscape.org/namespaces/inkscape"
   xmlns:sodipodi="http://sodipodi.sourceforge.net/DTD/sodipodi-0.dtd"
   xmlns="http://www.w3.org/2000/svg"
   xmlns:svg="http://www.w3.org/2000/svg">
  <defs
     id="defs10" />
  <sodipodi:namedview
     id="namedview10"
     pagecolor="#505050"
     bordercolor="#ffffff"
     borderopacity="1"
     inkscape:showpageshadow="0"
     inkscape:pageopacity="0"
     inkscape:pagecheckerboard="1"
     inkscape:deskcolor="#505050"
     inkscape:zoom="27.71875"
     inkscape:cx="12.807215"
     inkscape:cy="21.321308"
     inkscape:window-width="3840"
     inkscape:window-height="2036"
     inkscape:window-x="-12"
     inkscape:window-y="-12"
     inkscape:window-maximized="1"
     inkscape:current-layer="svg10" />
  <path
     d="m 9.484332,2.0122851 c 0.587807,-0.020537 1.239146,-0.00914 1.82987,-0.00905 l 3.095141,-1.739e-4 9.637431,-3.465e-4 4.314004,0.00483 c 0.464381,6.612e-4 1.921212,-0.029813 2.281375,0.063607 0.151481,0.2246874 0.10496,1.1255037 0.104835,1.4435524 l -0.0053,2.1901285 c 1.15375,0.037483 2.318916,0.00258 3.474009,0.00403 0.462325,5.197e-4 0.968023,-0.040075 1.424152,0.018791 0.128643,0.016615 0.215487,0.037529 0.294693,0.1469553 0.107017,0.1479239 0.05066,1.7031658 0.05039,2.0312944 l 0.004,6.3715754 0.0026,1.670765 c 3.51e-4,0.255024 0.01072,0.557408 -0.01488,0.809639 -0.0166,0.09107 -0.197149,0.240328 -0.271613,0.293155 -2.245431,1.594382 -4.460609,3.259803 -6.718796,4.834391 -0.975069,0.04906 -2.005043,-0.01457 -2.98593,0.01395 -0.380824,0.01104 -0.858089,0.01506 -1.233684,-0.01457 -0.579552,0.348169 -1.627377,0.723174 -2.264014,0.95901 0.0083,1.562806 0.0085,3.125613 5.17e-4,4.688419 l 2.258188,-0.0045 c 0.382635,-5.2e-4 0.75811,0.0044 1.140145,0.01373 0.480664,0.01178 0.352882,0.712972 0.353119,1.084334 l 5.23e-4,1.422544 0.0059,4.744284 c 0.897079,0.100185 1.383696,0.473006 1.828291,1.246822 0.163742,0.379863 0.340123,1.637004 0.0494,1.9134 -0.204073,0.05587 -1.006647,0.03643 -1.262955,0.03605 l -2.221139,-0.0031 -9.340064,0.0048 c -0.328226,-1.76e-4 -3.329703,0.03887 -3.438545,-0.04095 -0.09475,-0.06947 -0.138842,-0.181919 -0.154874,-0.294731 -0.02209,-0.155932 -0.009,-0.323399 -0.0067,-0.480661 0.0085,-0.575501 0.07082,-1.120891 0.450911,-1.583935 0.40997,-0.499605 0.933638,-0.72439 1.564819,-0.789361 l 0.0014,-4.712708 -0.0026,-1.445982 c -5.36e-4,-0.277976 -0.0078,-0.559472 0.0099,-0.836719 0.02117,-0.226849 0.195079,-0.264253 0.391387,-0.270446 0.385434,-0.01202 0.774142,-0.0062 1.159821,-0.0066 l 2.183968,-0.0018 c -0.0026,-1.5588 0.01117,-3.143708 -0.0102,-4.700442 -0.723487,-0.244095 -1.578662,-0.552915 -2.2266,-0.959495 -1.382844,0.0048 -2.795216,3.46e-4 -4.175639,0.02647 -0.218365,-0.112005 -0.656035,-0.4337 -0.866424,-0.583919 L 8.5413348,20.111687 5.5562065,17.961354 C 5.116996,17.645368 4.3746126,17.17066 4.009218,16.804276 3.991758,16.037144 4.004588,15.209169 4.003928,14.437662 L 4.001948,9.9516824 4.0015975,7.3101275 C 4.001776,6.8670552 3.9949175,6.4168051 4.0139645,5.9739629 4.0231545,5.7590393 4.2375545,5.7219769 4.4150733,5.716134 4.9724378,5.697839 5.5339358,5.705231 6.0923983,5.705833 l 3.1349224,0.00476 c 0.01686,-0.5034518 -0.065348,-3.3101527 0.03948,-3.5365281 0.042527,-0.091724 0.1281475,-0.127002 0.216586,-0.1620244 z M 18.961784,13.230283 C 18.5059,12.859528 18.09714,12.388098 17.662023,12.002041 c -0.302709,-0.268623 -1.025834,-1.08239 -1.358186,-1.167276 -0.196176,0.02259 -0.446657,0.280768 -0.580155,0.423703 -0.467307,0.500452 -0.996695,0.97358 -1.452823,1.48132 -0.07737,0.376221 0.03625,0.471671 0.317531,0.732281 0.638462,0.59129 1.244979,1.223017 1.880531,1.814915 0.375594,0.373914 2.265225,2.338684 2.587135,2.454174 0.132155,-0.01251 0.236625,-0.0963 0.330891,-0.187261 0.566426,-0.546234 1.080867,-1.145175 1.622517,-1.714969 l 3.356304,-3.551138 c 1.00385,-1.083241 2.023374,-2.159682 3.036701,-3.234424 0.0629,-0.086464 0.193148,-0.2223553 0.179663,-0.3327435 -0.0099,-0.080393 -0.07556,-0.190904 -0.126819,-0.2455506 C 27.081903,8.0766279 26.665735,7.7199585 26.289415,7.3230947 26.106227,7.130042 25.919284,6.9312092 25.712903,6.7646654 25.608068,6.6833377 25.549762,6.6635801 25.421728,6.6650142 c -0.331375,0.1873196 -1.06192,1.025678 -1.380297,1.3483432 l -3.493929,3.5980136 c -0.500472,0.51454 -1.069332,1.133882 -1.585718,1.618912 z m 9.972953,4.504195 c 0.264568,-0.171959 0.499368,-0.346224 0.753129,-0.533484 0.608457,-0.435117 1.219471,-0.866714 1.833032,-1.294789 0.346923,-0.24288 0.786411,-0.532392 1.110748,-0.790451 l -0.0014,-6.0974839 c -0.613316,-0.01214 -1.266726,-6.612e-4 -1.883316,-8.596e-4 -0.03949,0.7882655 0.02508,1.6963905 -0.01409,2.5062715 -0.09061,1.877091 -0.513217,3.443057 -1.249469,5.148676 -0.179174,0.354968 -0.373656,0.708842 -0.548575,1.062111 z M 9.2192806,9.0179057 l -1.868263,1.21e-4 0.0033,6.0942073 c 0.9875735,0.735801 2.013778,1.418535 3.0136264,2.1377 0.214642,0.160058 0.463417,0.355939 0.688991,0.492802 C 10.860521,17.327534 10.62377,16.903709 10.420543,16.47855 10.271867,16.095895 10.113462,15.738375 9.9765646,15.347705 9.1924554,13.110786 9.2169856,11.327931 9.2191747,9.0179057 Z"
     id="path1"
     style="stroke-width:0.0121457" />
  <path
     fill="#295b7a"
     d="m 9.8766908,2.6383666 20.2325622,-0.00106 c -0.0291,2.0703025 0.01078,4.1459613 -0.009,6.2160932 -0.02891,0.999934 0.04834,2.0237912 -0.01879,3.0210542 -0.297365,4.417609 -2.991392,8.78057 -7.328231,10.195342 -0.263961,0.08611 -0.586591,0.144757 -0.808032,0.311493 -0.07957,0.05999 -0.07483,0.374886 -0.07581,0.471428 l -0.0014,3.28057 c 0,0.573681 -0.0068,1.15137 0.0092,1.723228 0.0053,0.198555 0.192539,0.285991 0.360169,0.294006 0.379728,0.01821 0.776088,0.01165 1.15436,0.01153 l 2.224663,6.6e-4 -0.004,2.117788 0.0014,4.494844 c -3.727406,-0.03777 -7.514818,-0.0039 -11.245981,-8.6e-4 0.02964,-2.188465 -5.22e-4,-4.41603 0.009,-6.610202 l 2.31078,-0.0019 c 0.384946,3.47e-4 0.784474,0.0096 1.16748,-0.01651 0.365997,-0.0249 0.272466,-0.648001 0.272346,-0.903026 l -5.35e-4,-1.218159 c -0.0014,-1.105101 -0.0014,-2.212144 -0.0014,-3.317125 -0.02123,-0.107715 0.0338,-0.281495 -0.08077,-0.338816 -0.3909,-0.195518 -0.831235,-0.286354 -1.240849,-0.449933 -1.229004,-0.485619 -2.351906,-1.205513 -3.306194,-2.11959 -2.367655,-2.272409 -3.639361,-5.655597 -3.6065634,-8.912243 0.00754,-0.74819 0.00595,-1.5064591 1.19e-4,-2.2545269 -0.01541,-1.9956296 0.027447,-3.9993715 -0.014087,-5.9942117 z M 18.961784,13.230283 C 18.5059,12.859528 18.09714,12.388098 17.662023,12.002041 c -0.302709,-0.268623 -1.025834,-1.08239 -1.358186,-1.167276 -0.196176,0.02259 -0.446657,0.280768 -0.580155,0.423703 -0.467307,0.500452 -0.996695,0.97358 -1.452823,1.48132 -0.07737,0.376221 0.03625,0.471671 0.317531,0.732281 0.638462,0.59129 1.244979,1.223017 1.880531,1.814915 0.375594,0.373914 2.265225,2.338684 2.587135,2.454174 0.132155,-0.01251 0.236625,-0.0963 0.330891,-0.187261 0.566426,-0.546234 1.080867,-1.145175 1.622517,-1.714969 l 3.356304,-3.551138 c 1.00385,-1.083241 2.023374,-2.159682 3.036701,-3.234424 0.0629,-0.086464 0.193148,-0.2223553 0.179663,-0.3327435 -0.0099,-0.080393 -0.07556,-0.190904 -0.126819,-0.2455506 C 27.081903,8.0766279 26.665735,7.7199585 26.289415,7.3230947 26.106227,7.130042 25.919284,6.9312092 25.712903,6.7646654 25.608068,6.6833377 25.549762,6.6635801 25.421728,6.6650142 c -0.331375,0.1873196 -1.06192,1.025678 -1.380297,1.3483432 l -3.493929,3.5980136 c -0.500472,0.51454 -1.069332,1.133882 -1.585718,1.618912 z"
     id="path2"
     style="stroke-width:0.0121457" />
  <path
     fill="#9fcf2d"
     d="m 25.461086,7.390737 c 0.188769,0.094115 1.25105,1.1330322 1.426942,1.3297645 -0.326029,0.4050004 -0.673931,0.7529241 -1.027778,1.1304812 l -1.694792,1.8065363 -2.385006,2.533471 c -0.89137,0.953667 -1.775209,1.919233 -2.701685,2.838045 -0.896112,-0.740903 -1.760875,-1.752372 -2.62759,-2.536388 -0.402439,-0.393464 -1.22529,-1.131818 -1.554852,-1.535725 0.137024,-0.190417 1.223115,-1.300618 1.401678,-1.422544 0.230926,0.167708 0.727257,0.663061 0.948704,0.874972 0.567888,0.547572 1.143434,1.087249 1.726625,1.618548 0.143095,-0.119012 0.361499,-0.355089 0.498158,-0.493411 0.371222,-0.374637 0.738555,-0.753288 1.101886,-1.135579 L 23.62101,9.2827656 c 0.521121,-0.53992 1.29588,-1.4219367 1.840076,-1.8920286 z"
     id="path3"
     style="stroke-width:0.0121457" />
  <path
     fill="#c8c8c9"
     d="m 4.6452924,6.3413877 c 1.2977504,0.032048 2.6956525,-0.039394 3.9760949,0.010174 l 0.5943682,-0.00635 c -0.00397,0.5956869 0.025728,1.4397037 -0.00919,2.0052494 -0.058201,0.023922 -0.027448,0.017608 -0.092559,0.017726 -0.3953946,0.028782 -1.9222178,-0.03983 -2.1797758,0.049186 -0.094212,0.031453 -0.1696022,0.1032247 -0.2057991,0.19564 -0.083624,0.21762 -0.023147,5.8713629 -0.022222,6.5245859 6.61e-5,0.04105 0.014815,0.294734 0.043585,0.31635 1.602947,1.200066 3.2756354,2.33832 4.9009504,3.513613 0.05694,0.04129 0.229457,0.05635 0.280964,0.06266 0.533753,0.71443 1.557888,1.773625 2.331918,2.214816 -1.012355,0.01275 -2.018884,0.0014 -3.030512,0.0066 -0.767351,-0.498433 -1.7194555,-1.219906 -2.4757541,-1.762863 l -4.1138586,-2.94904 z"
     id="path4"
     style="stroke-width:0.0121457" />
  <path
     fill="#e2e0e1"
     d="m 8.6213873,6.3515654 0.5943682,-0.00635 c -0.00397,0.5956869 0.025728,1.4397031 -0.00919,2.0052495 -0.058201,0.023922 -0.027448,0.017608 -0.092559,0.017726 L 9.0646699,8.3350439 C 9.1585718,8.0313233 9.1140085,6.8192216 9.0888765,6.4344291 9.0849055,6.3754311 8.7212993,6.3842511 8.6214454,6.3515581 Z"
     id="path5"
     style="stroke-width:0.0121457" />
  <path
     fill="#c8c8c9"
     d="m 33.891929,6.3529493 c 0.460263,-0.00776 1.003249,0.00696 1.453187,-0.016054 -0.03889,0.9661616 -0.01441,2.0841344 -0.01468,3.0611179 l -5.17e-4,5.2668368 c 0.0014,0.620313 0.01131,1.241114 0.0026,1.861303 -1.78e-4,0.01566 -0.07654,0.07906 -0.09329,0.0912 -0.778038,0.509318 -1.71423,1.220591 -2.479993,1.77387 l -3.977838,2.855655 c -1.012838,0.01056 -2.025682,0.01045 -3.038408,-6.61e-4 0.87971,-0.568459 1.69079,-1.439182 2.351118,-2.242625 l 0.241487,5.19e-4 c 1.021587,-0.7862 2.217129,-1.626683 3.278559,-2.37123 l 1.024378,-0.72123 c 0.187195,-0.132369 0.471803,-0.320357 0.632391,-0.473613 0.02863,-0.375127 0.01898,-0.853964 0.02077,-1.240385 l 0.004,-2.149239 -0.0046,-2.0789255 c -0.0014,-0.4348756 0.0072,-0.9290129 -0.02686,-1.3581817 -0.08372,-0.1208324 -0.147385,-0.2094833 -0.304083,-0.2241763 -0.25582,-0.023922 -0.521605,-0.01165 -0.778892,-0.00996 l -1.418318,0.0068 c 0.0072,-0.6798204 0.0075,-1.3597473 0.0014,-2.0396279 0.97932,0.00106 2.164651,-0.027704 3.127813,0.00858 z"
     id="path6"
     style="stroke-width:0.0121457" />
  <path
     fill="#e2e0e1"
     d="m 33.891929,6.3529493 c 0.460263,-0.00776 1.003249,0.00696 1.453187,-0.016054 -0.03889,0.9661616 -0.01441,2.0841344 -0.01468,3.0611179 l -5.17e-4,5.2668368 c 0.0014,0.620313 0.01131,1.241114 0.0026,1.861303 -1.78e-4,0.01566 -0.07654,0.07906 -0.09329,0.0912 -0.02891,-0.05587 -0.0295,-0.04614 -0.02705,-0.106989 0.03195,-0.819595 0.01528,-1.645507 0.01322,-2.465587 l -0.0014,-3.891412 0.007,-2.3746307 c 5.29e-4,-0.3272795 0.01965,-0.9864061 -0.0221,-1.2893492 -0.117465,-0.1608956 -1.052077,-0.077757 -1.316525,-0.1364377 z"
     id="path7"
     style="stroke-width:0.0121457" />
  <path
     fill="#295b7a"
     d="m 13.787767,35.43297 0.05476,-0.0019 c 0.932786,-0.03037 1.971754,-0.0074 2.912563,-0.0075 l 5.344446,-8.59e-4 2.801908,6.61e-4 c 0.453939,5.2e-4 0.983077,-0.01104 1.431553,0.02211 0.271256,0.02016 0.658263,0.20985 0.855657,0.40488 0.466585,0.461106 0.448965,0.931925 0.459051,1.531113 -0.442286,-0.02018 -0.922348,-0.01214 -1.367789,-0.01262 l -13.930053,0.0031 c 0.01613,-0.497783 0.0013,-0.988641 0.339033,-1.387815 0.305382,-0.360307 0.645869,-0.498748 1.09885,-0.551331 z"
     id="path8"
     style="stroke-width:0.0121457" />
  <path
     fill="#e2e0e1"
     fill-opacity="0.0117647"
     d="m 10.420649,16.47855 c 0.20322,0.425159 0.439971,0.848984 0.636392,1.264186 -0.225574,-0.136863 -0.474342,-0.332744 -0.688991,-0.492802 0.103982,0.0016 0.153419,0.01748 0.199212,-0.08356 -0.0164,-0.0793 -0.06316,-0.122896 -0.115151,-0.181552 -0.0373,-0.04189 -0.01528,-0.407794 -0.03148,-0.506281 z"
     id="path9"
     style="stroke-width:0.0121457" />
  <path
     fill="#e2e0e1"
     fill-opacity="0.0117647"
     d="m 29.483304,16.672367 c -0.01746,0.111723 -0.02996,0.157993 -0.01991,0.268624 0.06754,0.01493 0.03406,0.01093 0.111388,-0.01506 0.02202,0.06655 -0.0059,0.122411 -0.03842,0.187988 l -0.02116,0.0419 0.01872,0.03352 c 0.06052,0.0075 0.09305,0.01031 0.153908,0.01165 -0.253762,0.18726 -0.488569,0.361525 -0.753137,0.533485 0.174925,-0.35327 0.369401,-0.707143 0.548575,-1.062111 z"
     id="path10"
     style="stroke-width:0.0121457" />
</svg>
