<?xml version="1.0" encoding="UTF-8" standalone="no"?>
<svg
   width="16"
   height="16"
   viewBox="0 0 16 16"
   version="1.1"
   id="svg10"
   sodipodi:docname="menuIcon.svg"
   inkscape:version="1.4.2 (f4327f4, 2025-05-13)"
   xmlns:inkscape="http://www.inkscape.org/namespaces/inkscape"
   xmlns:sodipodi="http://sodipodi.sourceforge.net/DTD/sodipodi-0.dtd"
   xmlns="http://www.w3.org/2000/svg"
   xmlns:svg="http://www.w3.org/2000/svg">
  <defs
     id="defs10" />
  <sodipodi:namedview
     id="namedview10"
     pagecolor="#505050"
     bordercolor="#ffffff"
     borderopacity="1"
     inkscape:showpageshadow="0"
     inkscape:pageopacity="0"
     inkscape:pagecheckerboard="1"
     inkscape:deskcolor="#505050"
     inkscape:zoom="55.4375"
     inkscape:cx="-1.8038331"
     inkscape:cy="8.3337091"
     inkscape:window-width="3840"
     inkscape:window-height="2036"
     inkscape:window-x="-12"
     inkscape:window-y="-12"
     inkscape:window-maximized="1"
     inkscape:current-layer="svg10" />
  <path
     d="M 3.3994031,0.00545965 C 3.6565695,-0.00366636 3.9415314,0.00139442 4.1999739,0.00144183 l 1.3541287,-7.727e-5 4.2163897,-1.5408e-4 1.8873837,0.00214521 c 0.203167,2.9381e-4 0.840532,-0.01325049 0.998104,0.02827047 0.06628,0.09986224 0.04592,0.50022839 0.04586,0.64158469 l -0.0024,0.97339905 c 0.504767,0.016659 1.014529,0.00115 1.519883,0.00179 0.202269,2.31e-4 0.423512,-0.017811 0.623069,0.00836 0.05628,0.00738 0.09427,0.016679 0.128929,0.065314 0.04682,0.065744 0.02217,0.7569694 0.02205,0.9028057 l 0.0018,2.8318368 0.0012,0.742569 c 1.55e-4,0.1133449 0.0046,0.247739 -0.0065,0.3598427 -0.0072,0.040475 -0.08625,0.1068134 -0.11883,0.1302923 -0.982379,0.7086206 -1.951523,1.4488143 -2.939483,2.1486375 -0.426595,0.021804 -0.877209,-0.00647 -1.306349,0.0062 -0.166611,0.00491 -0.375415,0.0067 -0.539738,-0.00647 -0.2535549,0.1547431 -0.7119806,0.3214136 -0.9905092,0.4262306 0.00361,0.6945867 0.00373,1.3891735 2.251e-4,2.0837615 l 0.9879611,-0.002 c 0.167403,-2.31e-4 0.331674,0.002 0.498815,0.006 0.210291,0.0052 0.154386,0.316879 0.15449,0.48193 l 2.29e-4,0.632247 0.0026,2.108591 c 0.392473,0.04453 0.605369,0.210227 0.79988,0.554148 0.07163,0.16883 0.148804,0.727563 0.02162,0.850408 -0.08928,0.02483 -0.44041,0.01619 -0.552545,0.01602 l -0.971753,-0.0014 -4.0862908,0.0021 c -0.1435994,-7.8e-5 -1.4567499,0.01728 -1.5043685,-0.01821 -0.041453,-0.03087 -0.060744,-0.08085 -0.067758,-0.130993 -0.00966,-0.06931 -0.00395,-0.143734 -0.00292,-0.213629 0.00372,-0.255781 0.030984,-0.498178 0.1972742,-0.703978 0.1793625,-0.222048 0.408468,-0.321954 0.6846105,-0.35083 l 6.125e-4,-2.094555 -0.00114,-0.642665 c -2.345e-4,-0.123546 -0.00341,-0.248657 0.00433,-0.371878 0.00926,-0.100824 0.085348,-0.117453 0.1712324,-0.1202 0.1686279,-0.0053 0.3386883,-0.0027 0.5074234,-0.003 l 0.9554891,-8e-4 c -0.00123,-0.692728 0.0048,-1.3971375 -0.00456,-2.0890255 C 6.5739171,9.1477138 6.1997768,9.0104593 5.916303,8.8297555 5.3113067,8.8318888 4.6933919,8.8299092 4.0894549,8.8415199 3.9939198,8.7917395 3.8024387,8.6487627 3.7103931,8.581998 L 2.9868405,8.0497106 1.6808426,7.0939984 C 1.4886873,6.953559 1.1638936,6.7425757 1.0040329,6.5797369 0.99639411,6.2387864 1.0020072,5.8707941 1.0017184,5.527899 L 1.0008522,3.5341124 1.0006989,2.3600774 c 7.8e-5,-0.1969228 -0.002917,-0.3970357 0.00541,-0.5938563 0.00403,-0.095522 0.097821,-0.111995 0.1754857,-0.1145918 0.2438478,-0.00813 0.4895041,-0.00485 0.7338322,-0.00457 l 1.371533,0.0021 c 0.00737,-0.2237535 -0.02859,-1.4711874 0.017273,-1.5717995 0.018606,-0.04076601 0.056064,-0.05644614 0.094757,-0.07201132 z M 7.5458021,4.9912813 C 7.3463522,4.8264998 7.1675191,4.6169736 6.9771547,4.4453912 6.8447191,4.3260021 6.528351,3.9643245 6.3829465,3.9265971 6.2971192,3.9366371 6.1875333,4.0513841 6.1291279,4.1149112 5.9246803,4.3373363 5.6930722,4.5476173 5.4935156,4.7732816 c -0.03385,0.1672109 0.015859,0.2096334 0.1389204,0.3254612 0.279328,0.2627979 0.54468,0.5435679 0.822735,0.8066361 0.1643228,0.1661855 0.9910391,1.0394245 1.1318753,1.0907538 0.057818,-0.00556 0.1035238,-0.0428 0.1447653,-0.083228 C 7.9796238,6.6701319 8.2046922,6.4039335 8.4416651,6.1506896 L 9.910053,4.5723918 c 0.439186,-0.4814448 0.885229,-0.9598673 1.328561,-1.4375346 0.02752,-0.038429 0.0845,-0.098825 0.0786,-0.1478875 -0.0043,-0.03573 -0.03307,-0.084847 -0.05549,-0.109134 C 11.098367,2.7007474 10.916292,2.5422262 10.751652,2.3658407 10.671501,2.2800384 10.589718,2.1916678 10.499427,2.1176476 10.453565,2.0815016 10.42805,2.0727204 10.372037,2.073358 10.227059,2.1566121 9.9074455,2.5292191 9.7681555,2.6726271 L 8.2395558,4.2717584 C 8.0205985,4.5004449 7.7717217,4.7757105 7.5458021,4.9912813 Z m 4.3631809,2.0018824 c 0.115745,-0.076427 0.218474,-0.1538787 0.329496,-0.2371061 0.2662,-0.193387 0.533519,-0.3852096 0.801955,-0.5754669 0.151779,-0.1079476 0.344055,-0.2366208 0.485952,-0.3513148 l -6.12e-4,-2.7100172 c -0.268326,-0.00539 -0.554194,-2.939e-4 -0.823953,-3.821e-4 -0.01728,0.3503434 0.01097,0.7539582 -0.0062,1.1139087 -0.03964,0.8342701 -0.224533,1.5302612 -0.546645,2.2883208 -0.07839,0.1577651 -0.163475,0.3150438 -0.240003,0.4720537 z m -8.6255403,-3.874067 -0.8173678,5.38e-5 0.00145,2.7085609 c 0.432062,0.3270257 0.8810279,0.6304659 1.318463,0.9500975 0.093906,0.071137 0.2027456,0.1581966 0.3014346,0.2190252 C 4.0014878,6.8122981 3.897909,6.6239298 3.8089968,6.4349685 3.7439508,6.2648981 3.6746484,6.1059989 3.6147555,5.9323663 3.2717067,4.938171 3.2824387,4.1457839 3.2833963,3.1190967 Z"
     id="path1"
     style="stroke-width:0.00535579" />
  <path
     fill="#295b7a"
     d="m 3.5710608,0.28372064 8.8517752,-4.7111e-4 c -0.01273,0.92014257 0.0046,1.84266607 -0.0039,2.76273287 -0.01265,0.4444192 0.02115,0.8994708 -0.0082,1.3427029 -0.130097,1.9633993 -1.308738,3.9025106 -3.2061118,4.5313038 -0.1154887,0.038271 -0.2566348,0.064337 -0.3535151,0.1384425 -0.034813,0.026662 -0.032737,0.1666176 -0.033168,0.2095255 l -6.125e-4,1.4580449 c 0,0.25497 -0.00291,0.511724 0.00409,0.765886 0.00233,0.08825 0.084234,0.127108 0.1575751,0.13067 0.1661315,0.0081 0.3395396,0.0052 0.5050342,0.0051 l 0.9732921,2.93e-4 -0.0017,0.941247 6.13e-4,1.997726 c -1.6307453,-0.01678 -3.2877436,-0.0018 -4.9201328,-3.82e-4 0.012967,-0.97266 -2.285e-4,-1.962698 0.00395,-2.937893 l 1.0109696,-8.45e-4 c 0.1684144,1.54e-4 0.3432084,0.0043 0.5107741,-0.0073 0.1601242,-0.01102 0.1192043,-0.288003 0.1191518,-0.401348 L 7.1805269,10.677734 C 7.1799144,10.186573 7.1799144,9.6945502 7.1799144,9.2034427 7.1706278,9.1555691 7.194702,9.0783327 7.1445772,9.0528565 6.973558,8.9659589 6.7809109,8.9255869 6.6017043,8.8528845 6.0640132,8.6370518 5.5727418,8.3170961 5.1552395,7.910836 4.119387,6.9008675 3.5630138,5.3972148 3.5773628,3.9498035 c 0.0033,-0.3325318 0.0026,-0.6695433 5.21e-5,-1.002021 -0.00674,-0.8869544 0.012008,-1.7775142 -0.00616,-2.66411792 z M 7.5458021,4.9912813 C 7.3463522,4.8264998 7.1675191,4.6169736 6.9771547,4.4453912 6.8447191,4.3260021 6.528351,3.9643245 6.3829465,3.9265971 6.2971192,3.9366371 6.1875333,4.0513841 6.1291279,4.1149112 5.9246803,4.3373363 5.6930722,4.5476173 5.4935156,4.7732816 c -0.03385,0.1672109 0.015859,0.2096334 0.1389204,0.3254612 0.279328,0.2627979 0.54468,0.5435679 0.822735,0.8066361 0.1643228,0.1661855 0.9910391,1.0394245 1.1318753,1.0907538 0.057818,-0.00556 0.1035238,-0.0428 0.1447653,-0.083228 C 7.9796238,6.6701319 8.2046922,6.4039335 8.4416651,6.1506896 L 9.910053,4.5723918 c 0.439186,-0.4814448 0.885229,-0.9598673 1.328561,-1.4375346 0.02752,-0.038429 0.0845,-0.098825 0.0786,-0.1478875 -0.0043,-0.03573 -0.03307,-0.084847 -0.05549,-0.109134 C 11.098367,2.7007474 10.916292,2.5422262 10.751652,2.3658407 10.671501,2.2800384 10.589718,2.1916678 10.499427,2.1176476 10.453565,2.0815016 10.42805,2.0727204 10.372037,2.073358 10.227059,2.1566121 9.9074455,2.5292191 9.7681555,2.6726271 L 8.2395558,4.2717584 C 8.0205985,4.5004449 7.7717217,4.7757105 7.5458021,4.9912813 Z"
     id="path2"
     style="stroke-width:0.00535579" />
  <path
     fill="#9fcf2d"
     d="m 10.389256,2.3959042 c 0.08259,0.041829 0.547336,0.5035744 0.624288,0.5910118 -0.142636,0.1800017 -0.294845,0.3346359 -0.449653,0.5024406 L 9.8224173,4.2922688 8.7789729,5.418266 C 8.3889981,5.8421219 8.0023168,6.2712661 7.5969824,6.6796308 7.204932,6.3503375 6.826597,5.9007917 6.4474079,5.552337 6.2713404,5.3774626 5.9113418,5.0493023 5.7671579,4.8697864 5.8271061,4.7851559 6.3022725,4.2917288 6.3803941,4.2375391 6.4814242,4.3120761 6.6985701,4.5322354 6.7954534,4.626419 7.0439053,4.8697864 7.2957075,5.1096451 7.5508544,5.34578 7.6134587,5.2928853 7.7090108,5.1879614 7.7687992,5.1264843 7.9312094,4.9599774 8.0919183,4.7916866 8.250876,4.621778 L 9.5842206,3.2368134 C 9.8122114,2.9968467 10.15117,2.6048359 10.389256,2.3959042 Z"
     id="path3"
     style="stroke-width:0.00535579" />
  <path
     fill="#c8c8c9"
     d="m 1.2823164,1.9295225 c 0.5677676,0.014244 1.1793518,-0.017509 1.7395473,0.00453 l 0.2600368,-0.00282 c -0.00174,0.2647521 0.011258,0.6398741 -0.00403,0.8912299 -0.025463,0.010631 -0.012008,0.00782 -0.040495,0.00788 -0.1729857,0.012792 -0.8409731,-0.017702 -0.9536551,0.021861 -0.041219,0.013979 -0.074202,0.045878 -0.090038,0.086952 -0.036585,0.096721 -0.010127,2.6095182 -0.00972,2.8998421 2.9e-5,0.018245 0.00649,0.1309941 0.019068,0.1406014 0.7012917,0.5333673 1.4330953,1.0392626 2.1441729,1.5616196 0.024911,0.018352 0.1003874,0.025044 0.1229222,0.027849 C 4.703652,7.8865952 5.1517126,8.3573528 5.4903518,8.5534394 5.047445,8.5591095 4.6070871,8.5540616 4.1644984,8.5563795 3.8287811,8.3348322 3.412234,8.0141747 3.0813523,7.7728584 L 1.2815332,6.4621621 Z"
     id="path4"
     style="stroke-width:0.00535579" />
  <path
     fill="#e2e0e1"
     d="m 3.0218637,1.9340459 0.2600368,-0.00282 c -0.00174,0.2647521 0.011258,0.6398739 -0.00403,0.89123 -0.025463,0.010631 -0.012008,0.00782 -0.040495,0.00788 l -0.02158,-0.014731 C 3.2568775,2.6806167 3.2373815,2.1418999 3.2263895,1.9708795 3.2246495,1.9446585 3.065574,1.9485775 3.0218878,1.9340475 Z"
     id="path5"
     style="stroke-width:0.00535579" />
  <path
     fill="#c8c8c9"
     d="m 14.077762,1.9346611 c 0.201366,-0.00345 0.438924,0.00309 0.635772,-0.00713 -0.01701,0.429409 -0.0063,0.9262903 -0.0064,1.3605091 l -2.25e-4,2.3408373 c 6.13e-4,0.2756972 0.0049,0.5516112 0.0012,0.8272533 -7.9e-5,0.00696 -0.03349,0.035137 -0.04081,0.040534 -0.340393,0.2263657 -0.749978,0.5424898 -1.085001,0.7883937 l -1.74031,1.2691914 C 11.39885,8.55894 10.955728,8.5589 10.51266,8.5539561 10.897474,8.3013002 11.252322,7.9143087 11.541217,7.5572198 l 0.105653,2.306e-4 C 12.093816,7.2080251 12.616867,6.8344737 13.081246,6.503561 l 0.448165,-0.3205497 c 0.0819,-0.058831 0.206416,-0.1423821 0.276673,-0.2104966 0.01253,-0.1667245 0.0083,-0.3795429 0.0091,-0.551287 l 0.0018,-0.9552259 -0.002,-0.9239753 c -6.12e-4,-0.1932798 0.0031,-0.4128982 -0.01174,-0.6036417 -0.03663,-0.053703 -0.06449,-0.093104 -0.133037,-0.099634 -0.111918,-0.010631 -0.228203,-0.00518 -0.340766,-0.00443 l -0.620517,0.00302 c 0.0031,-0.3021452 0.0032,-0.6043377 6.13e-4,-0.9065095 0.428453,4.711e-4 0.947038,-0.012313 1.368422,0.00382 z"
     id="path6"
     style="stroke-width:0.00535579" />
  <path
     fill="#e2e0e1"
     d="m 14.077762,1.9346611 c 0.201366,-0.00345 0.438924,0.00309 0.635772,-0.00713 -0.01701,0.429409 -0.0063,0.9262903 -0.0064,1.3605091 l -2.25e-4,2.3408373 c 6.13e-4,0.2756972 0.0049,0.5516112 0.0012,0.8272533 -7.9e-5,0.00696 -0.03349,0.035137 -0.04081,0.040534 -0.01265,-0.024831 -0.0129,-0.020507 -0.01183,-0.047551 0.01398,-0.3642677 0.0067,-0.7313429 0.0058,-1.0958263 l -6.77e-4,-1.729532 0.0031,-1.0554009 c 2.31e-4,-0.145459 0.0087,-0.4384067 -0.0096,-0.5730493 -0.05139,-0.07151 -0.460285,-0.034559 -0.575981,-0.060639 z"
     id="path7"
     style="stroke-width:0.00535579" />
  <path
     fill="#295b7a"
     d="m 5.2821621,14.859231 0.023958,-8.44e-4 c 0.4080952,-0.0135 0.8626452,-0.0033 1.2742505,-0.0033 l 2.3382029,-3.81e-4 1.2258385,2.94e-4 c 0.1986,2.31e-4 0.430097,-0.0049 0.626307,0.0098 0.118675,0.009 0.28799,0.09326 0.37435,0.179948 0.204132,0.204938 0.196424,0.414192 0.200836,0.680502 -0.1935,-0.009 -0.403528,-0.0055 -0.59841,-0.0056 l -6.0944176,0.0014 c 0.00706,-0.221239 5.687e-4,-0.4394 0.1483274,-0.616812 C 4.93501,14.9441 5.0839735,14.882569 5.2821534,14.8592 Z"
     id="path8"
     style="stroke-width:0.00535579" />
  <path
     fill="#e2e0e1"
     fill-opacity="0.0117647"
     d="M 3.8090432,6.4349685 C 3.8979517,6.6239298 4.0015311,6.8122981 4.0874656,6.9968341 3.988777,6.936005 3.8799402,6.8489465 3.7860311,6.7778089 c 0.045492,7.111e-4 0.06712,0.00776 0.087156,-0.037138 -0.00718,-0.035244 -0.027632,-0.054621 -0.050379,-0.08069 -0.016319,-0.018618 -0.00668,-0.1812434 -0.013772,-0.2250157 z"
     id="path9"
     style="stroke-width:0.00535579" />
  <path
     fill="#e2e0e1"
     fill-opacity="0.0117647"
     d="m 12.148983,6.5211102 c -0.0076,0.049655 -0.0131,0.070219 -0.0088,0.1193895 0.02955,0.00664 0.0149,0.00486 0.04873,-0.0067 0.0096,0.029578 -0.0026,0.054405 -0.01681,0.083551 l -0.0093,0.018622 0.0082,0.014898 c 0.02647,0.00333 0.0407,0.00459 0.06733,0.00518 -0.11102,0.083227 -0.213749,0.1606792 -0.329498,0.2371065 0.07653,-0.1570103 0.161613,-0.3142885 0.240001,-0.4720535 z"
     id="path10"
     style="stroke-width:0.00535579" />
</svg>
